<?xml version="1.0" encoding="UTF-8"?>
<svg id="Layer_1" data-name="Layer 1" xmlns="http://www.w3.org/2000/svg" xmlns:xlink="http://www.w3.org/1999/xlink" viewBox="0 0 1280 904">
  <defs>
    <style>
      .cls-1 {
        fill: #e4012e;
      }

      .cls-2 {
        opacity: .05;
      }

      .cls-3 {
        clip-path: url(#clippath);
      }

      .cls-4 {
        fill: none;
      }
    </style>
    <clipPath id="clippath">
      <rect class="cls-4" width="1280" height="904"/>
    </clipPath>
  </defs>
  <g class="cls-3">
    <g class="cls-2">
      <g>
        <path class="cls-1" d="M1853.12,50.08h-15.63c-92.68,0-185.36-.09-277.96,.18-8.53,0-14.64-2.42-20.84-8.35-39.34-37.99-86.58-60.53-140.91-64.57-48.95-3.59-98.16-3.95-147.29-4.31-99.15-.81-198.21-.72-297.36-.9-34.58-.09-43.11-5.66-55.5-37.09h-40.59c-17.42,35.2-17.24,71.13-5.66,108.58h-93.04c-27.48,0-35.65-5.48-46.25-31.61-10.78,0-21.91,.54-32.96-.18-6.29-.45-8.89,1.89-11.05,7.27-9.16,23.62-11.94,47.87-6.2,72.74,13.56,59.09,70.41,105.17,133.19,106.33,55.68,1.08,111.27,.54,166.95,.72h14.46c-7.81,12.75-14.37,22.9-20.3,33.5-1.8,3.05-3.23,7.72-2.16,10.78,8.35,23.17,17.33,46.16,26.31,69.42,7.18-1.8,13.56-3.32,23.08-5.75-36.73,64.12-71.85,125.55-107.68,188.06,8.71,3.5,16.17,7.01,23.89,9.61,15,4.94,24.79,10.78,27.75,30.27,5.84,38.17,40.23,65.74,81.46,72.21,42.39,6.65,85.59-11.76,106.24-46.25,4.49-7.45,10.15-11.23,17.96-13.65,20.84-6.38,41.58-13.2,62.69-20.03-1.35-4.94-2.33-9.07-3.59-13.11-5.93-19.22-1.89-36.64,8.62-53.26,3.77-5.93,7.72-7.18,14.28-5.3,33.86,9.52,57.57,38.89,57.03,71.04-.45,31.61-24.97,60.44-58.38,68.7-6.91,1.71-14.01,2.51-20.92,3.77v37.09c4.85,0,8.8,.27,12.75-.09,51.46-3.68,103.19-5.48,154.29-11.59,79.57-9.61,155.91-31.34,227.48-68.34,89-46.07,158.06-112.17,202.43-202.7,34.49-70.23,49.48-144.86,48.68-222.72-.27-26.58-3.41-53.26-5.3-80.47ZM964.11,10.47c100.14-.09,200.36,0,300.5,.81,44.37,.27,89,.54,133.28,4.31,76.25,6.65,142.35,65.56,158.15,137.77,.81,3.77,1.26,7.63,1.8,11.5-1.08,.9-2.07,1.8-3.14,2.69-.63-1.89-.81-4.13-1.98-5.66-31.34-39.34-72.74-58.29-122.68-58.38-140.37-.18-280.65,.18-421.02-.18-46.88-.09-85.14-18.05-110.19-59.27-9.34-15.18-13.38-32.06-13.47-52.9,24.88,19.31,51.64,19.31,78.76,19.31Zm446.44,132.65c57.93-9.25,112.17,24.52,123.58,76.07,6.11,27.93,.45,53.88-19.04,75.26-33.59,36.82-76.34,55.95-125.55,61.43-.99,.18-2.16,.18-3.14,.09-.72-.09-1.26-.54-3.23-1.44,31.97-26.4,54.06-58.38,59.99-99.87,5.93-41.4-1.53-79.12-32.6-111.54Zm-604.23,17.42c-48.41-.18-89.27-29.1-101.57-71.49-1.8-6.38-2.6-13.02-4.49-22.72,28.38,18.86,57.48,15.36,85.95,15.54,26.94,.09,53.88-.27,80.74,.27,4.31,.09,9.7,2.42,12.75,5.57,31.43,32.96,69.87,50.38,115.22,52.99,4.85,.36,9.79,.99,14.91,1.53-7.09,18.14-7.45,18.41-24.79,18.41-59.63,0-119.18,.18-178.72-.09Zm402.16,252.9c-24.43,21.82-40.95,48.5-41.67,82.98-.27,11.59-11.5,7.81-18.23,11.41-9.88-48.86-40.86-74.27-88.64-82.98-1.89,12.57-3.68,24.52-5.57,37.27,19.22,4.76,36.73,12.3,44.81,30.71,4.22,9.61,6.29,21.46,5.21,31.88-2.6,23.71-25.42,42.48-51.01,44.72-28.65,2.51-53.62-11.23-62.6-35.92,16.61,6.47,31.97,12.48,48.5,18.95,5.75-11.68,11.23-22.81,17.06-34.67-34.31-13.83-67.72-27.39-102.2-41.31,55.14-96.27,109.57-191.38,164.71-287.57-12.66-6.02-24.79-11.67-37.54-17.69-21.91,38.08-43.38,75.53-66.1,115.04-5.84-15.09-10.96-27.84-15.45-40.86-.81-2.34,.81-6.11,2.34-8.62,17.78-29.46,35.65-58.82,54.15-87.83,2.33-3.68,8.26-6.92,12.57-6.92,84.06-.45,168.03-.54,252-.27,39.61,.18,77.68,36.1,81.19,75.44,4.67,51.01-17.78,87.74-58.11,117.02-20.21,14.73-38.8,17.69-59.81,4.58-21.02-13.29-41.94-26.85-64.75-41.4-7.99,6.02-17.96,13.56-29.1,21.91,20.84,23.44,45.98,39.7,72.21,52.81-18.41,13.92-37.27,26.31-53.97,41.31Zm525.2-14.46c-51.55,70.95-121.69,117.47-202.79,148.54-70.14,26.94-143.24,40.32-217.87,46.43-.63,.09-1.35-.45-3.32-1.17,22.18-29.19,31.07-61.25,20.3-96.81-10.69-35.29-35.65-57.75-71.31-74,28.47-13.29,50.11-32.42,83.07-28.92,78.49,8.35,148.72-13.56,203.77-71.13,60.98-63.58,73.46-150.7,33.41-227.66-.63-1.26-1.08-2.6-2.16-5.39,3.95-.27,6.83-.54,9.61-.54,72.48,0,145.04,.09,217.52-.18,7.45,0,11.05,1.53,11.41,9.79,5.03,109.12-16.35,211.14-81.64,301.04Z"/>
        <path class="cls-1" d="M689.02,249.81c-21.82-18.5-38.8-38.53-52.27-63.14-35.74-65.38-72.21-130.4-108.04-195.78-7.63-13.92-4.67-28.11,6.56-39.43,3.41-3.5,7.45-6.47,11.76-10.15-5.48-9.88-10.33-19.85-16.35-29.1-1.53-2.42-6.56-3.86-9.79-3.59-25.33,2.16-49.39,8.98-71.58,21.55-24.43,13.92-44.28,32.51-58.82,58.29,12.93,5.93,25.06,11.5,37.36,17.06,14.19-22.18,31.7-38.44,55.77-48.41,.09,2.6,.54,4.4,.18,6.02-3.77,19.04,1.35,36.01,10.69,52.45,15,26.49,29.55,53.35,44.19,80.02,1.44,2.69,2.51,5.48,5.03,10.78-9.97-4.58-17.87-7.18-24.61-11.41C453.1,53.67,387.18,12.27,321.62-29.58c-17.69-11.23-21.37-28.83-12.12-47.96,.63-1.17,.9-2.42,1.35-3.95-10.06-6.47-19.58-12.84-29.55-18.59-2.16-1.26-6.29-1.44-8.44-.27-48.77,27.66-80.38,80.65-73.64,136.69,1.71,13.92,5.57,27.57,8.62,42.03-15.36,0-30.45,0-45.44-.09-2.51,0-5.03,.09-7.54-.18-17.33-1.62-30.89-12.93-35.65-29.64-.72-2.25-1.71-4.49-2.42-6.47-1.8-.18-2.87-.45-3.95-.45-9.34,0-18.68,.63-27.93-.27-8.17-.72-11.41,2.96-13.83,9.79-19.31,54.51-9.79,103.64,30.27,145.04,15.63,16.17,35.83,27.84,55.41,42.75-35.03,61.97-23.98,133.01-26.13,204.31C18.87,391.71-47.67,310.52-55.22,186.04h-40.86c.45,76.25,26.85,141.63,76.34,197.58,51.28,58.11,115.04,95.29,193,111.09v-146.48c0-33.23,7.63-64.66,22.36-94.3,1.62-3.14,5.84-7.19,8.8-7.19,34.85-.09,69.6,.81,104.45,.9,91.87,.18,183.84-.36,275.71,.18,40.95,.27,73.73,17.33,94.84,53.17,18.05,30.8,14.64,71.49-7.27,96.01-5.12-7.36-9.7-15.18-15.36-21.91-51.91-61.16-118.37-81.64-195.33-64.75-66.37,14.55-113.16,53.97-133.19,120.79-3.77,12.84-5.12,26.85-5.39,40.32-.63,41.49-.27,83.07-.27,126.18-8.35,0-15.09,.36-21.82-.09-38.62-2.87-77.41-4.76-115.85-9.16-67.63-7.9-133.19-24.34-195.51-52.18-99.87-44.55-175.93-113.61-220.03-215.09-23.17-53.26-34.58-109.21-37.36-166.95-1.08-21.64-.18-43.38-.18-66.1H-68.15V50.79h-235.03c-.54,1.71-.9,2.69-1.08,3.68-9.88,54.24-8.71,108.49-.18,162.73,13.83,87.74,48.05,166.24,107.23,233.14,64.21,72.47,145.58,117.38,236.91,146.12,95.02,29.91,193.09,38.26,291.97,40.32,10.24,.27,20.48-.99,32.42-1.62v-54.6c20.84,13.11,40.14,28.65,61.97,38.44,42.75,19.31,87.74,25.24,132.65,6.56,73.55-30.62,93.94-115.67,41.4-172.07-9.52-10.24-21.82-18.05-33.05-27.21,5.39-6.82,11.23-14.28,17.96-22.72-13.56-6.38-25.6-12.12-37.45-17.78-3.23,3.86-5.48,6.65-7.9,9.25-32.87,35.03-94.66,22.9-108.49-21.19-2.25-7.09-1.26-11.05,5.84-14.46,29.91-14.73,61.25-20.66,94.03-14.46,56.22,10.6,96.45,40.5,113.25,97.35,2.42,8.08,4.76,16.17,7.54,25.42,11.14-8.08,21.1-15,30.71-22.54,64.66-50.65,69.06-142.08,6.47-195.33ZM262.88-39.01c.63,.18,1.71,.18,1.89,.54,8.35,22.36,25.06,36.55,44.9,48.5,32.15,19.49,63.67,39.96,95.47,59.99,3.14,2.07,6.11,4.31,11.85,8.35h-16.7c-44.46,0-88.82-.27-133.28,.18-7.63,0-11.59-2.51-15-8.98-18.68-35.29-14.46-79.12,10.87-108.58Zm-79.84,234.58c-2.07,2.25-6.65,4.31-9.16,3.5-37.9-12.03-69.51-55.41-69.69-94.75,0-1.35,.27-2.69,.54-4.94,3.05,1.62,5.57,2.78,7.9,4.22,14.55,8.53,30.18,12.84,47.06,12.75,34.13-.09,68.16,0,102.29,0,3.41,0,6.74,.27,9.61,.45-18.68,14.46-37.9,28.11-55.59,43.47-12.03,10.51-21.73,23.71-32.96,35.3Zm41.31,13.38c58.64-64.3,129.41-95.47,213.47-91.6,86.04,3.95,147.29,58.47,161.83,91.6H224.36Zm262.06,244.64c12.75,.9,25.95-1.17,38.44,1.08,37.27,6.65,64.66,39.87,62.51,73.73-2.34,35.92-34.04,66.46-72.03,69.06-68.61,4.85-131.12-37.18-146.84-99.51-9.52-37.99-.09-71.94,24.88-104.09,20.75,38.62,52.18,56.85,93.04,59.72Z"/>
        <path class="cls-1" d="M885.97,356.86c-49.3,86.22-98.34,171.71-148.09,258.56-12.66-5.93-24.25-11.32-37.63-17.51,49.39-86.22,98.34-171.8,148-258.47,12.39,5.66,24.25,11.23,37.72,17.42Z"/>
      </g>
    </g>
  </g>
</svg>