<?xml version="1.0" encoding="UTF-8"?>
<svg id="Layer_1" data-name="Layer 1" xmlns="http://www.w3.org/2000/svg" xmlns:xlink="http://www.w3.org/1999/xlink" viewBox="0 0 1280 904">
  <defs>
    <style>
      .cls-1 {
        fill: #e4012e;
      }

      .cls-2 {
        opacity: .05;
      }

      .cls-3 {
        clip-path: url(#clippath);
      }

      .cls-4 {
        fill: none;
      }

      .cls-5 {
        fill: url(#linear-gradient);
      }
    </style>
    <clipPath id="clippath">
      <rect class="cls-4" width="1280" height="904"/>
    </clipPath>
    <linearGradient id="linear-gradient" x1="127.88" y1="44.22" x2="1766.53" y2="44.22" gradientUnits="userSpaceOnUse">
      <stop offset="0" stop-color="#e40031" stop-opacity="0"/>
      <stop offset="1" stop-color="#e40031" stop-opacity=".05"/>
    </linearGradient>
  </defs>
  <g class="cls-3">
    <g class="cls-2">
      <path class="cls-1" d="M1087.89,684.04h-156.07v105.67h183.17v65.3h-264.46V460.5h263.91v65.84h-182.63v94.02h156.07v63.67Z"/>
      <path class="cls-1" d="M1308.72,710.59h-64.76v144.42h-81.29V460.5h146.59c46.61,0,82.55,10.39,107.84,31.16,25.29,20.77,37.93,50.13,37.93,88.06,0,26.92-5.83,49.36-17.48,67.33-11.65,17.98-29.31,32.29-52.97,42.95l85.35,161.22v3.79h-87.25l-73.97-144.42Zm-64.76-65.84h65.57c20.41,0,36.21-5.19,47.42-15.58,11.2-10.38,16.8-24.7,16.8-42.95s-5.28-33.24-15.85-43.9c-10.57-10.66-26.78-15.99-48.64-15.99h-65.3v118.41Z"/>
    </g>
    <path class="cls-5" d="M1762.51-120.28h-11.8c-70,0-139.99-.07-209.92,.14-6.44,0-11.06-1.83-15.74-6.31-29.71-28.69-65.39-45.72-106.42-48.77-36.97-2.71-74.13-2.98-111.24-3.26-74.88-.61-149.69-.54-224.57-.68-26.11-.07-32.56-4.27-41.92-28.01h-30.66c-13.16,26.59-13.02,53.72-4.27,82h-70.27c-20.76,0-26.93-4.14-34.93-23.87-8.14,0-16.55,.41-24.89-.14-4.75-.34-6.71,1.42-8.34,5.49-6.92,17.84-9.02,36.15-4.68,54.94,10.24,44.63,53.18,79.43,100.59,80.31,42.05,.81,84.04,.41,126.09,.54h10.92c-5.9,9.63-10.85,17.3-15.33,25.3-1.36,2.31-2.44,5.83-1.63,8.14,6.31,17.5,13.09,34.86,19.87,52.43,5.43-1.36,10.24-2.51,17.43-4.34-27.74,48.43-54.26,94.82-81.32,142.03,6.58,2.65,12.21,5.29,18.04,7.26,11.33,3.73,18.72,8.14,20.96,22.86,4.41,28.83,30.39,49.65,61.52,54.53,32.01,5.02,64.64-8.89,80.24-34.93,3.39-5.63,7.66-8.48,13.57-10.31,15.74-4.82,31.4-9.97,47.34-15.13-1.02-3.73-1.76-6.85-2.71-9.9-4.48-14.51-1.42-27.67,6.51-40.22,2.85-4.48,5.83-5.43,10.78-4,25.57,7.19,43.48,29.37,43.07,53.65-.34,23.88-18.86,45.65-44.09,51.89-5.22,1.29-10.58,1.9-15.8,2.85v28.01c3.66,0,6.65,.2,9.63-.07,38.86-2.78,77.93-4.14,116.53-8.75,60.09-7.26,117.75-23.67,171.81-51.62,67.22-34.79,119.38-84.72,152.88-153.08,26.05-53.04,37.37-109.4,36.76-168.21-.2-20.08-2.58-40.22-4-60.77Zm-671.42-29.91c75.63-.07,151.32,0,226.95,.61,33.51,.2,67.22,.41,100.66,3.26,57.58,5.02,107.51,49.51,119.44,104.05,.61,2.85,.95,5.77,1.36,8.68-.81,.68-1.56,1.36-2.37,2.03-.47-1.42-.61-3.12-1.49-4.27-23.67-29.71-54.94-44.02-92.65-44.09-106.01-.14-211.96,.14-317.97-.14-35.41-.07-64.3-13.63-83.22-44.77-7.05-11.46-10.11-24.21-10.17-39.95,18.79,14.58,39,14.58,59.48,14.58Zm337.17,100.18c43.75-6.99,84.72,18.52,93.33,57.45,4.61,21.09,.34,40.7-14.38,56.84-25.37,27.81-57.65,42.26-94.82,46.39-.75,.14-1.63,.14-2.37,.07-.54-.07-.95-.41-2.44-1.09,24.15-19.94,40.83-44.09,45.31-75.42,4.48-31.27-1.15-59.76-24.62-84.24Zm-456.34,13.16c-36.56-.14-67.42-21.98-76.71-53.99-1.36-4.82-1.97-9.83-3.39-17.16,21.43,14.24,43.41,11.6,64.91,11.73,20.35,.07,40.7-.2,60.98,.2,3.26,.07,7.33,1.83,9.63,4.21,23.74,24.89,52.77,38.05,87.02,40.02,3.66,.27,7.39,.75,11.26,1.15-5.36,13.7-5.63,13.9-18.72,13.9-45.04,0-90.01,.14-134.98-.07Zm303.73,191c-18.45,16.48-30.93,36.63-31.47,62.67-.2,8.75-8.68,5.9-13.77,8.61-7.46-36.9-30.86-56.09-66.95-62.67-1.42,9.5-2.78,18.52-4.21,28.15,14.52,3.59,27.74,9.29,33.85,23.2,3.19,7.26,4.75,16.21,3.93,24.08-1.97,17.91-19.2,32.08-38.53,33.78-21.64,1.9-40.49-8.48-47.28-27.13,12.55,4.88,24.15,9.43,36.63,14.31,4.34-8.82,8.48-17.23,12.89-26.18-25.91-10.45-51.14-20.69-77.19-31.2,41.65-72.71,82.75-144.54,124.39-217.18-9.56-4.54-18.72-8.82-28.35-13.36-16.55,28.76-32.76,57.04-49.92,86.89-4.41-11.39-8.28-21.03-11.67-30.86-.61-1.76,.61-4.61,1.76-6.51,13.43-22.25,26.93-44.43,40.9-66.33,1.76-2.78,6.24-5.22,9.5-5.22,63.49-.34,126.9-.41,190.32-.2,29.91,.14,58.67,27.27,61.32,56.97,3.53,38.53-13.43,66.27-43.88,88.38-15.26,11.12-29.3,13.36-45.17,3.46-15.87-10.04-31.68-20.28-48.9-31.27-6.04,4.54-13.57,10.24-21.98,16.55,15.74,17.7,34.73,29.98,54.53,39.88-13.9,10.51-28.15,19.87-40.76,31.2Zm396.65-10.92c-38.93,53.58-91.91,88.72-153.15,112.19-52.97,20.35-108.18,30.45-164.55,35.07-.47,.07-1.02-.34-2.51-.88,16.75-22.04,23.47-46.26,15.33-73.12-8.07-26.66-26.93-43.61-53.85-55.89,21.5-10.04,37.85-24.49,62.74-21.84,59.28,6.31,112.32-10.24,153.9-53.72,46.05-48.02,55.48-113.81,25.23-171.94-.47-.95-.81-1.97-1.63-4.07,2.98-.2,5.15-.41,7.26-.41,54.74,0,109.54,.07,164.28-.14,5.63,0,8.34,1.15,8.61,7.39,3.8,82.41-12.34,159.46-61.65,227.36ZM883.33,30.57c-16.48-13.97-29.3-29.1-39.48-47.68-26.99-49.38-54.53-98.48-81.6-147.86-5.77-10.51-3.53-21.23,4.95-29.78,2.58-2.64,5.63-4.88,8.89-7.66-4.14-7.46-7.8-14.99-12.34-21.98-1.15-1.83-4.95-2.92-7.39-2.71-19.13,1.63-37.3,6.78-54.06,16.28-18.45,10.51-33.44,24.55-44.43,44.02,9.77,4.48,18.92,8.68,28.22,12.89,10.72-16.75,23.94-29.03,42.12-36.56,.07,1.97,.41,3.32,.14,4.54-2.85,14.38,1.02,27.2,8.07,39.61,11.33,20.01,22.32,40.29,33.37,60.43,1.09,2.03,1.9,4.14,3.8,8.14-7.53-3.46-13.5-5.43-18.58-8.61-49.85-31.2-99.64-62.47-149.15-94.08-13.36-8.48-16.14-21.77-9.16-36.22,.47-.88,.68-1.83,1.02-2.98-7.6-4.88-14.79-9.7-22.32-14.04-1.63-.95-4.75-1.09-6.38-.2-36.83,20.89-60.71,60.91-55.62,103.23,1.29,10.51,4.21,20.82,6.51,31.74-11.6,0-22.99,0-34.32-.07-1.9,0-3.8,.07-5.7-.14-13.09-1.22-23.33-9.77-26.93-22.38-.54-1.7-1.29-3.39-1.83-4.88-1.36-.14-2.17-.34-2.98-.34-7.05,0-14.11,.47-21.09-.2-6.17-.54-8.61,2.24-10.45,7.39-14.58,41.17-7.39,78.27,22.86,109.54,11.8,12.21,27.06,21.03,41.85,32.29-26.45,46.8-18.11,100.45-19.74,154.31-84.38-38.86-134.64-100.18-140.33-194.19h-30.86c.34,57.59,20.28,106.96,57.65,149.22,38.73,43.88,86.89,71.96,145.76,83.9V104.91c0-25.1,5.77-48.84,16.89-71.22,1.22-2.37,4.41-5.43,6.65-5.43,26.32-.07,52.57,.61,78.88,.68,69.39,.14,138.84-.27,208.23,.14,30.93,.2,55.69,13.09,71.63,40.15,13.63,23.26,11.06,53.99-5.49,72.51-3.87-5.56-7.33-11.46-11.6-16.55-39.2-46.19-89.4-61.65-147.52-48.9-50.12,10.99-85.46,40.76-100.59,91.23-2.85,9.7-3.87,20.28-4.07,30.45-.47,31.34-.2,62.74-.2,95.3-6.31,0-11.4,.27-16.48-.07-29.17-2.17-58.47-3.59-87.5-6.92-51.07-5.97-100.59-18.38-147.66-39.41-75.42-33.64-132.87-85.8-166.18-162.45-17.5-40.22-26.11-82.48-28.22-126.09-.81-16.35-.14-32.76-.14-49.92h151.05v-28.15H133.98c-.41,1.29-.68,2.04-.81,2.78-7.46,40.97-6.58,81.94-.14,122.9,10.45,66.27,36.29,125.55,80.99,176.08,48.5,54.74,109.95,88.65,178.93,110.35,71.76,22.59,145.83,28.89,220.5,30.45,7.73,.2,15.46-.75,24.49-1.22v-41.24c15.74,9.9,30.32,21.64,46.8,29.03,32.29,14.58,66.27,19.06,100.18,4.95,55.55-23.13,70.95-87.36,31.27-129.96-7.19-7.73-16.48-13.63-24.96-20.55,4.07-5.15,8.48-10.78,13.57-17.16-10.24-4.82-19.33-9.16-28.28-13.43-2.44,2.92-4.14,5.02-5.97,6.99-24.82,26.45-71.49,17.3-81.94-16.01-1.7-5.36-.95-8.34,4.41-10.92,22.59-11.12,46.26-15.6,71.01-10.92,42.46,8,72.85,30.59,85.53,73.52,1.83,6.1,3.6,12.21,5.7,19.2,8.41-6.1,15.94-11.33,23.2-17.02,48.84-38.25,52.16-107.3,4.88-147.52Zm-321.84-218.13c.47,.14,1.29,.14,1.42,.41,6.31,16.89,18.92,27.61,33.91,36.63,24.28,14.72,48.09,30.18,72.1,45.31,2.37,1.56,4.61,3.26,8.95,6.31h-12.62c-33.57,0-67.08-.2-100.65,.14-5.77,0-8.75-1.9-11.33-6.78-14.11-26.66-10.92-59.76,8.21-82ZM501.2-10.4c-1.56,1.7-5.02,3.26-6.92,2.64-28.62-9.09-52.5-41.85-52.63-71.56,0-1.02,.2-2.03,.41-3.73,2.31,1.22,4.21,2.1,5.97,3.19,10.99,6.44,22.79,9.7,35.54,9.63,25.77-.07,51.48,0,77.25,0,2.58,0,5.09,.2,7.26,.34-14.11,10.92-28.62,21.23-41.98,32.83-9.09,7.94-16.41,17.91-24.89,26.66ZM532.4-.29c44.29-48.56,97.74-72.1,161.22-69.18,64.98,2.98,111.24,44.16,122.22,69.18h-283.45Zm197.92,184.76c9.63,.68,19.6-.88,29.03,.81,28.15,5.02,48.84,30.12,47.21,55.69-1.76,27.13-25.71,50.19-54.4,52.16-51.82,3.66-99.03-28.08-110.9-75.15-7.19-28.69-.07-54.33,18.79-78.61,15.67,29.17,39.41,42.93,70.27,45.11Zm301.76-73.05c-37.24,65.11-74.27,129.69-111.85,195.27-9.56-4.48-18.31-8.55-28.42-13.23,37.3-65.11,74.27-129.75,111.78-195.21,9.36,4.27,18.31,8.48,28.49,13.16Zm471.19,87.09c-4.34-8.07-8.82-16.28-13.43-24.82,79.63-39.27,128.06-99.84,133.01-191.41h30.05c14.24,70.95-67.69,189.58-149.63,216.23Z"/>
  </g>
</svg>